<?xml version="1.0" standalone="no"?>
<!DOCTYPE svg PUBLIC "-//W3C//DTD SVG 20010904//EN"
 "http://www.w3.org/TR/2001/REC-SVG-20010904/DTD/svg10.dtd">
<svg version="1.0" xmlns="http://www.w3.org/2000/svg"
 width="512.000000pt" height="512.000000pt" viewBox="0 0 512.000000 512.000000"
 preserveAspectRatio="xMidYMid meet">
<metadata>
Created by potrace 1.11, written by Peter Selinger 2001-2013
</metadata>
<g transform="translate(0.000000,512.000000) scale(0.100000,-0.100000)"
fill="#000000" stroke="none">
<path d="M0 2560 l0 -2560 2560 0 2560 0 0 2560 0 2560 -2560 0 -2560 0 0
-2560z m2067 1769 c38 -14 90 -65 114 -111 30 -58 24 -156 -26 -450 -65 -388
-135 -912 -220 -1653 -19 -170 -40 -355 -47 -410 -6 -55 -12 -153 -12 -218
l-1 -119 30 -25 c29 -25 32 -26 135 -19 58 3 179 17 270 31 370 57 519 72 986
100 239 14 314 24 466 59 116 28 182 1 231 -95 25 -47 28 -61 23 -112 -11
-106 -66 -181 -174 -234 -66 -32 -108 -34 -507 -19 -476 18 -962 -51 -1474
-210 -295 -91 -382 -78 -462 68 -48 88 -46 156 9 389 23 97 47 212 52 255 125
967 153 1215 225 1989 47 507 61 609 89 671 26 56 72 97 126 112 48 14 133 14
167 1z"/>
</g>
</svg>
